<svg xmlns="http://www.w3.org/2000/svg" viewBox="0 0 1189.25 1047.68"><defs><style>.cls-1{fill:#80b2ff;}.cls-2,.cls-3{fill:none;stroke-width:4px;}.cls-2{stroke:#b3d1ff;stroke-linejoin:round;}.cls-3{stroke:#003880;stroke-miterlimit:10;}.cls-4{fill:#d9ffff;}.cls-5{fill:#fff;}.cls-6{fill:#4d93ff;}.cls-7{fill:#0046b3;}</style></defs><g id="Layer_2" data-name="Layer 2"><g id="shield"><g id="cloud"><path class="cls-1" d="M79.35,740.31c.08-1,.13-2.07.13-3.12a39.74,39.74,0,0,0-79.48,0c0,1,.05,2.09.13,3.12Z"/><path class="cls-1" d="M209.91,740.31c.08-1,.13-2.07.13-3.12a39.74,39.74,0,0,0-79.48,0c0,1,.05,2.09.13,3.12Z"/><path class="cls-1" d="M243.72,740.31a26.81,26.81,0,0,0,.18-3.12,28.11,28.11,0,0,0-56.21,0,29.21,29.21,0,0,0,.18,3.12Z"/><path class="cls-1" d="M164.2,740.31a58.22,58.22,0,1,0-115.51,0Z"/><path class="cls-1" d="M1058.55,286.22c.08-1,.14-2.06.14-3.11a39.75,39.75,0,0,0-79.49,0c0,1.05.06,2.09.14,3.11Z"/><path class="cls-1" d="M1189.11,286.22c.08-1,.14-2.06.14-3.11a39.75,39.75,0,0,0-79.49,0c0,1.05.06,2.09.14,3.11Z"/><path class="cls-1" d="M1143.4,286.22a58.22,58.22,0,1,0-115.5,0Z"/></g><g id="Gear"><path class="cls-2" d="M911.9,221.42a157,157,0,0,0,3.31-63.58l6.72-1,13.29-1.93.17,0A177.37,177.37,0,0,0,911.1,88.72L893.6,98.85a163,163,0,0,0-43.94-47.17l12.15-16A187.31,187.31,0,0,0,796.5,5.57l-5,19.27a170.07,170.07,0,0,0-65.38-3.22L723.06,2A190.14,190.14,0,0,0,655,25.62l10.43,17a164.14,164.14,0,0,0-48.52,42.73L600.5,73.55a177.36,177.36,0,0,0-31,63.5l19.81,4.88A156.62,156.62,0,0,0,586,205.5l-14.27,2.08-5.83.89-.07,0a178.29,178.29,0,0,0,24.29,66.18l17.49-10.14a163.27,163.27,0,0,0,44,47.2l-12.15,16a187,187,0,0,0,65.24,30.13l5-19.27a170.44,170.44,0,0,0,65.45,3.24L777.52,357l.7,4.37a190,190,0,0,0,68-23.64l-10.42-17a166,166,0,0,0,48.61-42.77l16.41,11.81a178.59,178.59,0,0,0,30.91-63.45ZM728.41,266.84C680,254.91,650.74,207.16,663,160.09s61.36-75.44,109.77-63.51,77.59,59.66,65.34,106.66S776.74,278.75,728.41,266.84Z"/><path class="cls-2" d="M989.76,397.58A86.68,86.68,0,0,0,963.41,376l1.72-3.06,3.4-6,0-.08a99.69,99.69,0,0,0-36.27-11.18L931.09,366a89.69,89.69,0,0,0-34.33,2.87l-3-10a98.18,98.18,0,0,0-33.81,17l6.71,8.18a85.29,85.29,0,0,0-22.22,25.62l-9.43-5a93.83,93.83,0,0,0-11.5,35.26l10.65,1.17a82.8,82.8,0,0,0,3,33.39l-10.32,2.93a93.71,93.71,0,0,0,17.49,32.87l8.42-6.52a86.6,86.6,0,0,0,26.35,21.6l-3.65,6.48-1.47,2.66,0,0a100.25,100.25,0,0,0,36.27,11.18l1.21-10.36a89.86,89.86,0,0,0,34.36-2.9l3,10a98.17,98.17,0,0,0,33.78-17l-6.71-8.18a85.38,85.38,0,0,0,22.25-25.65l7.32,3.91,2.11,1.11A93.74,93.74,0,0,0,1019,461.42l-10.65-1.18a83.64,83.64,0,0,0-2.95-33.44l10.32-2.92a94.52,94.52,0,0,0-17.5-32.82Zm-38.89,89.26c-20.57,15.93-50.47,12.63-66.85-7.36a45.38,45.38,0,0,1,7.59-65c20.54-15.9,50.44-12.61,66.8,7.36A45.37,45.37,0,0,1,950.87,486.84Z"/><path class="cls-3" d="M230.15,874.56a100.26,100.26,0,0,0-30.41-24.93l2-3.52,3.92-7,0-.09a115,115,0,0,0-41.86-12.91l-1.39,12a103.43,103.43,0,0,0-39.62,3.31l-3.47-11.58a113.45,113.45,0,0,0-39,19.63l7.73,9.45a98.58,98.58,0,0,0-25.64,29.56L51.57,882.7a108.19,108.19,0,0,0-13.28,40.69l12.3,1.35A95.27,95.27,0,0,0,54,963.27l-11.91,3.38a108.08,108.08,0,0,0,20.19,37.93L72,997.05A100.07,100.07,0,0,0,102.4,1022l-4.22,7.47-1.7,3.07,0,0a115.7,115.7,0,0,0,41.85,12.91l1.39-12a103.87,103.87,0,0,0,39.66-3.34l3.47,11.58a113.33,113.33,0,0,0,39-19.6l-7.74-9.45a98.65,98.65,0,0,0,25.67-29.59l8.45,4.51,2.43,1.28a108.09,108.09,0,0,0,13.24-40.67l-12.3-1.35a96.12,96.12,0,0,0-3.4-38.59l11.91-3.38A108.68,108.68,0,0,0,239.86,867Zm-44.87,103c-23.74,18.38-58.25,14.58-77.15-8.5s-15-56.6,8.77-75,58.2-14.55,77.08,8.49A52.37,52.37,0,0,1,185.28,977.57Z"/></g><path class="cls-4" d="M239.26,290.05h0c0-1.05,0-1.52,0-1.62C239.27,288.62,239.26,290.05,239.26,290.05Z"/><path class="cls-4" d="M239.26,290.05h0c0-1.05,0-1.52,0-1.62C239.27,288.62,239.26,290.05,239.26,290.05Z"/><path class="cls-4" d="M884.13,292.86v0Z"/><path class="cls-4" d="M884.13,292.86v0Z"/><path class="cls-5" d="M562.89,142.33C491.51,216.87,377.6,278,255.71,304c0,7.94-.24,51.9-1.17,254.55C253.31,828.88,517.22,961,558.2,981.26c39.7-17.82,306.94-149.72,308.18-420,.93-202.65,1.14-246.62,1.17-254.55C745.91,279.57,633.59,217.49,562.89,142.33Z"/><path class="cls-1" d="M562.25,171.65C488.66,237.46,386.71,289.18,274.6,317.37L273.5,558.5C273,668.83,318,768.64,407.14,855.17c58.6,56.85,120.21,92.11,151.48,108l4.27-2.16V172.21C562.68,172,562.45,171.84,562.25,171.65Z"/><path class="cls-6" d="M562.89,172.21V961c32.51-16.48,91.6-50.56,148.19-104.49,90-85.75,135.85-185.16,136.35-295.49l1.11-241.13C737,290.79,635.82,238.39,562.89,172.21Z"/><path class="cls-7" d="M787.51,413.9c-85.35,12.83-201.56,88.71-274.88,180-10.29-43-56.45-82.3-80.61-90.88l-73.18,71.7c45.69,20.08,95.63,77,102.24,135.17l73.11,11C565,661.54,644.61,519.58,803,443.24,799.92,431.62,788.74,415.55,787.51,413.9Z"/></g></g></svg>