<svg id="Bg" xmlns="http://www.w3.org/2000/svg" xmlns:xlink="http://www.w3.org/1999/xlink" viewBox="0 0 875.29 850.94"><defs><style>.cls-1{fill:#f7931e;}.cls-2{fill:#fff;}.cls-3{fill:#fdfaf6;}</style><symbol id="New_Symbol" data-name="New Symbol" viewBox="0 0 875.29 850.94"><g id="Group_6" data-name="Group 6"><g id="Group_4" data-name="Group 4"><path id="Path_5-2" data-name="Path 5-2" class="cls-1" d="M437.64,0C679.35,0,875.29,190.49,875.29,425.47S679.35,850.94,437.64,850.94,0,660.45,0,425.47,195.94,0,437.64,0Z"/></g></g><g id="Path_9-2" data-name="Path 9-2"><path class="cls-2" d="M455.73,765.58c-1.6,0-3.81-.89-6.55-2.73a76.72,76.72,0,0,1-9.81-8.27c-9.2-8.88-21.51-23.15-36.58-42.41-14-17.95-30.49-40.22-48.88-66.22-17.28-24.41-36.08-51.82-55.89-81.49-18.92-28.32-38.3-58-57.6-88.24-38.25-59.89-73.49-117.67-99.23-162.68-13.38-23.39-23.83-42.7-31.07-57.41-3.75-7.61-6.64-14-8.58-19s-3-8.78-3.05-10.95a5.56,5.56,0,0,1,.19-2.14,2.35,2.35,0,0,1,.64.59,18.9,18.9,0,0,1,1.43,2c1.13,1.72,2.62,4.22,4.5,7.39,12.16,20.49,40.64,68.47,100,117.37C223,366,262.66,388.29,297.67,408,319,419.9,339,431.19,352.52,439.76c2.43,1.53,10.51,5.42,20.74,10.35,9.41,4.54,20.07,9.68,28.77,14.17,4.75,2.45,8.37,4.42,11.07,6,3.72,2.22,4.89,3.3,5.23,3.81v0a65.87,65.87,0,0,1,8,13.64,125.14,125.14,0,0,1,6.2,17.43c1.73,6.1,3.28,13,4.64,20.38,1.24,6.85,2.36,14.41,3.31,22.47,1.62,13.8,2.82,29.44,3.66,47.81.74,16,1.1,32,1.42,46,.42,18.08.78,33.7,1.77,44.91a74.18,74.18,0,0,0,2,13.24c1,3.44,2.3,5.09,4,5.07a3,3,0,0,0,2.19-1c1.28-1.36,2.18-4.09,2.77-8.34a123.15,123.15,0,0,0,.83-15.33c.07-12.26-.68-28-1.54-46.24-1.33-28.1-2.83-59.95-1.79-89.24a301.94,301.94,0,0,1,3.82-40.81,140,140,0,0,1,4-17,74.11,74.11,0,0,1,5.71-13.85,17,17,0,0,1,4.77-5.06,59.58,59.58,0,0,1,8.23-5.13c6.44-3.45,14.58-6.95,23.19-10.67,11.37-4.9,23.12-10,33.39-15.84,35.1-20,88.14-50.37,121-78.75,23.09-19.93,45-44.78,65.11-73.86,7.36-10.64,14.38-21.66,21.46-33.7,6-10.16,10.7-18.83,14.49-25.79,2.43-4.47,4.36-8,5.84-10.49.76-1.29,1.37-2.23,1.85-2.88a4.5,4.5,0,0,1,.82-.91,3.61,3.61,0,0,1,.07.72c.15,9.3-15.23,46-43.31,103.29-13.17,26.88-28.49,57-45.52,89.52-17.14,32.7-35.11,66.1-53.41,99.28-19.06,34.53-37.65,67.31-55.27,97.43-18.79,32.13-36,60.39-51.1,84-16.32,25.49-30.08,45.34-40.9,59a148,148,0,0,1-14.71,16.45c-4.14,3.8-7.38,5.74-9.63,5.78Z"/><path class="cls-2" d="M455.72,765.08h0c3-.05,9.59-3.92,24-22,10.8-13.62,24.55-33.45,40.87-58.93,15.11-23.61,32.3-51.86,51.09-84,17.61-30.11,36.2-62.89,55.26-97.42,18.31-33.17,36.27-66.56,53.4-99.26,17-32.51,32.36-62.63,45.53-89.51,13.57-27.72,24.21-50.65,31.61-68.16,3.82-9.05,6.75-16.6,8.7-22.42,1.85-5.54,2.83-9.56,2.93-12l-.17.23c-.48.68-1.07,1.62-1.82,2.9-1.45,2.46-3.3,5.86-5.64,10.15-3.8,7-8.52,15.64-14.5,25.8-7.09,12-14.11,23.08-21.48,33.73-20.14,29.12-42.07,54-65.19,74-32.9,28.41-86,58.74-121.08,78.81-10.3,5.88-22.06,11-33.44,15.86-8.6,3.71-16.73,7.22-23.16,10.65a61.2,61.2,0,0,0-8.16,5.08,17.25,17.25,0,0,0-4.64,4.91,73.82,73.82,0,0,0-5.67,13.76,138.29,138.29,0,0,0-4,17,297.44,297.44,0,0,0-3.82,40.74c-1,29.27.46,61.11,1.79,89.19.86,18.25,1.61,34,1.54,46.27-.09,13.94-1.24,21.35-3.73,24a3.53,3.53,0,0,1-2.55,1.21c-2.88,0-4.07-4.08-4.47-5.43a75.1,75.1,0,0,1-2.07-13.33c-1-11.24-1.35-26.86-1.76-44.94-.33-14.06-.69-30-1.43-46-.84-18.37-2-34-3.66-47.78-.95-8-2.06-15.6-3.31-22.44-1.35-7.41-2.9-14.25-4.62-20.33A126.08,126.08,0,0,0,425.9,488,65.52,65.52,0,0,0,418,474.47l0,0,0,0c-.25-.38-1.24-1.36-5.07-3.65-2.69-1.6-6.3-3.57-11-6-8.7-4.48-19.36-9.62-28.77-14.16-10.25-4.93-18.34-8.83-20.79-10.38-13.46-8.56-33.55-19.84-54.82-31.79-17.93-10.07-36.48-20.48-52.92-30.3-18.69-11.16-31.65-19.77-39.6-26.32-59.41-48.95-87.92-97-100.09-117.5-1.78-3-3.19-5.37-4.29-7.07A23.36,23.36,0,0,0,99,225.06c0,.28,0,.65,0,1.14,0,2.11,1.05,5.74,3,10.78s4.81,11.33,8.56,18.93c7.23,14.7,17.68,34,31.05,57.38,25.74,45,61,102.78,99.22,162.66,19.3,30.23,38.68,59.91,57.6,88.24,19.8,29.65,38.6,57.07,55.88,81.47,18.38,26,34.82,48.26,48.86,66.2,15.06,19.24,27.35,33.49,36.54,42.36,9.36,9,13.87,10.9,16,10.86m0,1c-39,.73-357.1-499.89-357.76-539.86,0-1.81.16-2.67.63-2.67,4.07-.08,28.66,63,106.93,127.45,28.31,23.32,111.22,65.44,147.24,88.33,6.88,4.36,62.54,29.24,66,34.52,39.39,50.29,19.5,231,34.62,230.77h0c17-.32-15.11-176.09,15.56-231.64,6.39-11.58,43.63-22,69.77-36.89,39.26-22.44,89.1-51.21,120.93-78.69,71.62-61.86,105.65-147.76,110-147.83.31,0,.46.41.48,1.28C770.75,250.82,494.74,765.36,455.75,766.08Z"/></g><g id="Group_18" data-name="Group 18"><g id="Group_17" data-name="Group 17"><g id="Group_15" data-name="Group 15"><path id="Path_6" data-name="Path 6" class="cls-2" d="M540.2,271.62v22.14c0,3.77,3.94,6.84,8.8,6.84s8.8-3.06,8.8-6.84V271.62a6.18,6.18,0,0,0-2.53-4.8H542.74A6.17,6.17,0,0,0,540.2,271.62Z"/><path id="Path_7" data-name="Path 7" class="cls-2" d="M553,261.14V216.65L545,219v42.19Z"/><path id="Path_8" data-name="Path 8" class="cls-2" d="M541,261.14v5.68h15.85v-5.68Z"/></g><path id="Path_10" data-name="Path 10" class="cls-2" d="M346.91,233.27l87.83,42,87.82-42L560.78,215l7.62-3.65,4-1.92L434.74,144l-137.68,65.4Z"/><g id="Group_16" data-name="Group 16"><path id="Path_3" data-name="Path 3" class="cls-3" d="M518.87,262.68l-81.75,32a6.28,6.28,0,0,1-4.67,0l-81.75-32v79.25h.08L350.6,343c0,9.42,37.7,30.47,84.14,30.47s84-21.05,84-30.47l-.2-1.09h.29Z"/></g></g></g></symbol></defs><use width="875.29" height="850.94" xlink:href="#New_Symbol"/></svg>